<svg width="1079" height="121" viewBox="0 0 1079 121" fill="none" xmlns="http://www.w3.org/2000/svg">
<path d="M69.375 107.139C68.6259 107.139 67.9879 106.935 67.4609 106.528C66.9339 106.117 66.5313 105.522 66.2528 104.743C65.9744 103.961 65.8352 103.016 65.8352 101.909C65.8352 100.809 65.9744 99.8691 66.2528 99.0902C66.5346 98.308 66.9389 97.7114 67.4659 97.3004C67.9962 96.8861 68.6326 96.679 69.375 96.679C70.1174 96.679 70.7521 96.8861 71.2791 97.3004C71.8094 97.7114 72.2138 98.308 72.4922 99.0902C72.7739 99.8691 72.9148 100.809 72.9148 101.909C72.9148 103.016 72.7756 103.961 72.4972 104.743C72.2188 105.522 71.8161 106.117 71.2891 106.528C70.7621 106.935 70.1241 107.139 69.375 107.139ZM69.375 106.045C70.1174 106.045 70.6941 105.687 71.1051 104.972C71.5161 104.256 71.7216 103.235 71.7216 101.909C71.7216 101.027 71.6271 100.277 71.4382 99.657C71.2526 99.0372 70.9841 98.5649 70.6328 98.2401C70.2848 97.9152 69.8655 97.7528 69.375 97.7528C68.6392 97.7528 68.0642 98.1158 67.6499 98.8416C67.2356 99.5642 67.0284 100.587 67.0284 101.909C67.0284 102.791 67.1212 103.54 67.3068 104.156C67.4924 104.773 67.7592 105.242 68.1072 105.563C68.4586 105.885 68.8812 106.045 69.375 106.045Z" fill="white"/>
<path d="M142.634 96.8182V107H141.401V98.1108H141.341L138.855 99.7614V98.5085L141.401 96.8182H142.634Z" fill="white"/>
<path d="M212.054 107V106.105L215.415 102.426C215.809 101.995 216.134 101.621 216.389 101.303C216.644 100.981 216.833 100.679 216.956 100.398C217.082 100.113 217.145 99.8144 217.145 99.5028C217.145 99.1449 217.059 98.835 216.886 98.5732C216.717 98.3113 216.485 98.1091 216.19 97.9666C215.895 97.8241 215.564 97.7528 215.196 97.7528C214.805 97.7528 214.464 97.834 214.172 97.9964C213.884 98.1555 213.66 98.3793 213.501 98.6676C213.345 98.956 213.267 99.294 213.267 99.6818H212.094C212.094 99.0852 212.231 98.5616 212.506 98.1108C212.781 97.66 213.156 97.3087 213.63 97.0568C214.107 96.8049 214.643 96.679 215.236 96.679C215.832 96.679 216.361 96.8049 216.822 97.0568C217.282 97.3087 217.644 97.6484 217.906 98.076C218.167 98.5036 218.298 98.9792 218.298 99.5028C218.298 99.8774 218.23 100.244 218.094 100.602C217.962 100.956 217.73 101.352 217.398 101.79C217.07 102.224 216.615 102.754 216.031 103.381L213.744 105.827V105.906H218.477V107H212.054Z" fill="white"/>
<path d="M288.494 107.139C287.838 107.139 287.253 107.027 286.739 106.801C286.229 106.576 285.823 106.263 285.521 105.862C285.223 105.457 285.061 104.988 285.034 104.455H286.287C286.313 104.783 286.426 105.066 286.625 105.305C286.824 105.54 287.084 105.722 287.406 105.852C287.727 105.981 288.083 106.045 288.474 106.045C288.912 106.045 289.3 105.969 289.638 105.817C289.976 105.664 290.241 105.452 290.433 105.18C290.625 104.909 290.722 104.594 290.722 104.236C290.722 103.861 290.629 103.531 290.443 103.246C290.258 102.958 289.986 102.733 289.628 102.57C289.27 102.408 288.832 102.327 288.315 102.327H287.5V101.233H288.315C288.72 101.233 289.074 101.16 289.379 101.014C289.688 100.868 289.928 100.663 290.1 100.398C290.276 100.133 290.364 99.821 290.364 99.4631C290.364 99.1184 290.287 98.8184 290.135 98.5632C289.982 98.308 289.767 98.1091 289.489 97.9666C289.214 97.8241 288.889 97.7528 288.514 97.7528C288.163 97.7528 287.831 97.8175 287.52 97.9467C287.212 98.0727 286.96 98.2566 286.764 98.4986C286.569 98.7372 286.463 99.0256 286.446 99.3636H285.253C285.273 98.83 285.433 98.3627 285.735 97.9616C286.037 97.5573 286.431 97.2424 286.918 97.017C287.409 96.7917 287.947 96.679 288.534 96.679C289.164 96.679 289.704 96.8066 290.155 97.0618C290.606 97.3137 290.952 97.6468 291.194 98.0611C291.436 98.4754 291.557 98.9228 291.557 99.4034C291.557 99.9768 291.406 100.466 291.104 100.87C290.806 101.274 290.4 101.554 289.886 101.71V101.79C290.529 101.896 291.031 102.169 291.393 102.61C291.754 103.048 291.935 103.589 291.935 104.236C291.935 104.789 291.784 105.286 291.482 105.727C291.184 106.165 290.776 106.509 290.259 106.761C289.742 107.013 289.154 107.139 288.494 107.139Z" fill="white"/>
<path d="M357.815 104.912V103.898L362.29 96.8182H363.026V98.3892H362.528L359.148 103.739V103.818H365.173V104.912H357.815ZM362.608 107V104.604V104.131V96.8182H363.781V107H362.608Z" fill="white"/>
<path d="M434.236 107.139C433.652 107.139 433.127 107.023 432.66 106.791C432.192 106.559 431.818 106.241 431.536 105.837C431.254 105.432 431.1 104.972 431.074 104.455H432.267C432.313 104.915 432.522 105.296 432.893 105.598C433.268 105.896 433.715 106.045 434.236 106.045C434.653 106.045 435.025 105.948 435.349 105.752C435.678 105.557 435.934 105.288 436.12 104.947C436.309 104.602 436.403 104.213 436.403 103.778C436.403 103.334 436.306 102.938 436.11 102.59C435.918 102.239 435.653 101.962 435.315 101.76C434.977 101.558 434.59 101.455 434.156 101.452C433.845 101.448 433.525 101.496 433.197 101.596C432.869 101.692 432.598 101.816 432.386 101.969L431.233 101.83L431.849 96.8182H437.139V97.9119H432.884L432.526 100.915H432.585C432.794 100.749 433.056 100.612 433.371 100.502C433.686 100.393 434.014 100.338 434.355 100.338C434.978 100.338 435.533 100.487 436.021 100.786C436.511 101.08 436.896 101.485 437.174 101.999C437.456 102.512 437.597 103.099 437.597 103.759C437.597 104.408 437.451 104.988 437.159 105.499C436.871 106.006 436.473 106.407 435.966 106.702C435.459 106.993 434.882 107.139 434.236 107.139Z" fill="white"/>
<path d="M507.435 107.139C507.017 107.133 506.599 107.053 506.182 106.901C505.764 106.748 505.383 106.491 505.038 106.13C504.694 105.765 504.417 105.273 504.208 104.653C503.999 104.03 503.895 103.248 503.895 102.307C503.895 101.405 503.979 100.607 504.148 99.9105C504.317 99.2112 504.563 98.6229 504.884 98.1456C505.206 97.665 505.594 97.3004 506.048 97.0518C506.505 96.8033 507.02 96.679 507.594 96.679C508.164 96.679 508.671 96.7933 509.115 97.022C509.563 97.2474 509.927 97.5623 510.209 97.9666C510.491 98.371 510.673 98.8366 510.756 99.3636H509.543C509.43 98.9062 509.211 98.5268 508.886 98.2251C508.562 97.9235 508.131 97.7727 507.594 97.7727C506.805 97.7727 506.183 98.1158 505.729 98.8018C505.279 99.4879 505.052 100.451 505.048 101.69H505.128C505.313 101.409 505.534 101.168 505.789 100.969C506.048 100.767 506.333 100.612 506.644 100.502C506.956 100.393 507.286 100.338 507.634 100.338C508.217 100.338 508.75 100.484 509.234 100.776C509.718 101.064 510.106 101.463 510.398 101.974C510.689 102.481 510.835 103.062 510.835 103.719C510.835 104.348 510.694 104.925 510.413 105.449C510.131 105.969 509.735 106.384 509.224 106.692C508.717 106.997 508.121 107.146 507.435 107.139ZM507.435 106.045C507.852 106.045 508.227 105.941 508.558 105.732C508.893 105.523 509.156 105.243 509.349 104.892C509.544 104.541 509.642 104.15 509.642 103.719C509.642 103.298 509.548 102.915 509.359 102.57C509.173 102.222 508.916 101.946 508.588 101.74C508.263 101.535 507.892 101.432 507.474 101.432C507.16 101.432 506.866 101.495 506.594 101.621C506.323 101.743 506.084 101.912 505.879 102.128C505.676 102.343 505.517 102.59 505.401 102.869C505.285 103.144 505.227 103.434 505.227 103.739C505.227 104.143 505.322 104.521 505.511 104.872C505.703 105.223 505.965 105.507 506.296 105.722C506.631 105.938 507.01 106.045 507.435 106.045Z" fill="white"/>
<path d="M577.372 107L581.926 97.9915V97.9119H576.676V96.8182H583.199V97.9716L578.665 107H577.372Z" fill="white"/>
<path d="M653.315 107.139C652.633 107.139 652.029 107.018 651.506 106.776C650.985 106.531 650.579 106.195 650.288 105.767C649.996 105.336 649.852 104.846 649.855 104.295C649.852 103.865 649.936 103.467 650.109 103.102C650.281 102.734 650.516 102.428 650.815 102.183C651.116 101.934 651.453 101.777 651.824 101.71V101.651C651.337 101.525 650.949 101.251 650.661 100.83C650.372 100.406 650.23 99.9238 650.233 99.3835C650.23 98.8665 650.361 98.4041 650.626 97.9964C650.891 97.5888 651.255 97.2673 651.719 97.032C652.187 96.7966 652.719 96.679 653.315 96.679C653.905 96.679 654.432 96.7966 654.896 97.032C655.36 97.2673 655.725 97.5888 655.99 97.9964C656.259 98.4041 656.394 98.8665 656.398 99.3835C656.394 99.9238 656.247 100.406 655.955 100.83C655.667 101.251 655.284 101.525 654.807 101.651V101.71C655.175 101.777 655.506 101.934 655.801 102.183C656.096 102.428 656.331 102.734 656.507 103.102C656.683 103.467 656.772 103.865 656.776 104.295C656.772 104.846 656.623 105.336 656.328 105.767C656.036 106.195 655.63 106.531 655.11 106.776C654.593 107.018 653.995 107.139 653.315 107.139ZM653.315 106.045C653.776 106.045 654.174 105.971 654.509 105.822C654.843 105.673 655.102 105.462 655.284 105.19C655.466 104.919 655.559 104.6 655.562 104.236C655.559 103.851 655.46 103.512 655.264 103.217C655.069 102.922 654.802 102.69 654.464 102.521C654.129 102.352 653.746 102.267 653.315 102.267C652.881 102.267 652.493 102.352 652.152 102.521C651.814 102.69 651.547 102.922 651.352 103.217C651.159 103.512 651.065 103.851 651.068 104.236C651.065 104.6 651.153 104.919 651.332 105.19C651.514 105.462 651.774 105.673 652.112 105.822C652.45 105.971 652.851 106.045 653.315 106.045ZM653.315 101.213C653.68 101.213 654.003 101.14 654.285 100.994C654.57 100.848 654.794 100.645 654.956 100.383C655.118 100.121 655.201 99.8144 655.205 99.4631C655.201 99.1184 655.12 98.8184 654.961 98.5632C654.802 98.3047 654.581 98.1058 654.3 97.9666C654.018 97.8241 653.69 97.7528 653.315 97.7528C652.934 97.7528 652.601 97.8241 652.316 97.9666C652.031 98.1058 651.811 98.3047 651.655 98.5632C651.499 98.8184 651.423 99.1184 651.426 99.4631C651.423 99.8144 651.501 100.121 651.66 100.383C651.822 100.645 652.046 100.848 652.331 100.994C652.616 101.14 652.944 101.213 653.315 101.213Z" fill="white"/>
<path d="M726.295 96.679C726.713 96.6823 727.131 96.7618 727.548 96.9176C727.966 97.0734 728.347 97.3319 728.692 97.6932C729.036 98.0511 729.313 98.54 729.522 99.1598C729.731 99.7796 729.835 100.557 729.835 101.491C729.835 102.396 729.749 103.2 729.577 103.903C729.408 104.602 729.162 105.192 728.841 105.673C728.523 106.153 728.135 106.518 727.678 106.766C727.223 107.015 726.71 107.139 726.136 107.139C725.566 107.139 725.058 107.027 724.61 106.801C724.166 106.572 723.801 106.256 723.516 105.852C723.235 105.444 723.054 104.972 722.974 104.435H724.188C724.297 104.902 724.514 105.288 724.839 105.593C725.167 105.895 725.599 106.045 726.136 106.045C726.922 106.045 727.542 105.702 727.996 105.016C728.453 104.33 728.682 103.361 728.682 102.108H728.602C728.417 102.386 728.196 102.627 727.941 102.829C727.686 103.031 727.402 103.187 727.091 103.296C726.779 103.406 726.448 103.46 726.097 103.46C725.513 103.46 724.978 103.316 724.491 103.028C724.007 102.736 723.619 102.337 723.327 101.83C723.039 101.319 722.895 100.736 722.895 100.08C722.895 99.4564 723.034 98.8864 723.312 98.3693C723.594 97.849 723.989 97.4347 724.496 97.1264C725.006 96.8182 725.606 96.669 726.295 96.679ZM726.295 97.7727C725.878 97.7727 725.502 97.8771 725.167 98.0859C724.835 98.2914 724.572 98.5698 724.376 98.9212C724.184 99.2692 724.088 99.6553 724.088 100.08C724.088 100.504 724.181 100.89 724.366 101.238C724.555 101.583 724.812 101.858 725.137 102.063C725.465 102.265 725.838 102.366 726.256 102.366C726.571 102.366 726.864 102.305 727.136 102.183C727.407 102.057 727.644 101.886 727.847 101.67C728.052 101.452 728.213 101.205 728.329 100.93C728.445 100.651 728.503 100.361 728.503 100.06C728.503 99.6619 728.407 99.2891 728.214 98.9411C728.026 98.593 727.764 98.3113 727.429 98.0959C727.098 97.8804 726.72 97.7727 726.295 97.7727Z" fill="white"/>
<path d="M799.634 96.8182V107H798.401V98.1108H798.341L795.855 99.7614V98.5085L798.401 96.8182H799.634ZM805.883 107.139C805.134 107.139 804.496 106.935 803.969 106.528C803.442 106.117 803.039 105.522 802.761 104.743C802.482 103.961 802.343 103.016 802.343 101.909C802.343 100.809 802.482 99.8691 802.761 99.0902C803.042 98.308 803.447 97.7114 803.974 97.3004C804.504 96.8861 805.14 96.679 805.883 96.679C806.625 96.679 807.26 96.8861 807.787 97.3004C808.317 97.7114 808.722 98.308 809 99.0902C809.282 99.8691 809.423 100.809 809.423 101.909C809.423 103.016 809.283 103.961 809.005 104.743C808.727 105.522 808.324 106.117 807.797 106.528C807.27 106.935 806.632 107.139 805.883 107.139ZM805.883 106.045C806.625 106.045 807.202 105.687 807.613 104.972C808.024 104.256 808.229 103.235 808.229 101.909C808.229 101.027 808.135 100.277 807.946 99.657C807.76 99.0372 807.492 98.5649 807.141 98.2401C806.793 97.9152 806.373 97.7528 805.883 97.7528C805.147 97.7528 804.572 98.1158 804.158 98.8416C803.743 99.5642 803.536 100.587 803.536 101.909C803.536 102.791 803.629 103.54 803.815 104.156C804 104.773 804.267 105.242 804.615 105.563C804.966 105.885 805.389 106.045 805.883 106.045Z" fill="white"/>
<path d="M872.634 96.8182V107H871.401V98.1108H871.341L868.855 99.7614V98.5085L871.401 96.8182H872.634ZM879.141 96.8182V107H877.908V98.1108H877.849L875.363 99.7614V98.5085L877.908 96.8182H879.141Z" fill="white"/>
<path d="M945.634 96.8182V107H944.401V98.1108H944.341L941.855 99.7614V98.5085L944.401 96.8182H945.634ZM948.562 107V106.105L951.923 102.426C952.317 101.995 952.642 101.621 952.897 101.303C953.152 100.981 953.341 100.679 953.464 100.398C953.59 100.113 953.653 99.8144 953.653 99.5028C953.653 99.1449 953.567 98.835 953.394 98.5732C953.225 98.3113 952.993 98.1091 952.698 97.9666C952.403 97.8241 952.072 97.7528 951.704 97.7528C951.313 97.7528 950.971 97.834 950.68 97.9964C950.391 98.1555 950.168 98.3793 950.009 98.6676C949.853 98.956 949.775 99.294 949.775 99.6818H948.602C948.602 99.0852 948.739 98.5616 949.014 98.1108C949.289 97.66 949.664 97.3087 950.138 97.0568C950.615 96.8049 951.15 96.679 951.744 96.679C952.34 96.679 952.869 96.8049 953.33 97.0568C953.79 97.3087 954.152 97.6484 954.413 98.076C954.675 98.5036 954.806 98.9792 954.806 99.5028C954.806 99.8774 954.738 100.244 954.602 100.602C954.47 100.956 954.238 101.352 953.906 101.79C953.578 102.224 953.122 102.754 952.539 103.381L950.252 105.827V105.906H954.985V107H948.562Z" fill="white"/>
<rect x="65.5" y="12.5" width="72" height="72" fill="#78E2A0" stroke="black"/>
<rect x="722.5" y="12.5" width="72" height="72" fill="#78E2A0" stroke="black"/>
<rect x="795.5" y="12.5" width="72" height="72" fill="#92AE9D" stroke="black"/>
<rect x="868.5" y="12.5" width="72" height="72" fill="#92AE9D" stroke="black"/>
<rect x="941.5" y="12.5" width="72" height="72" fill="#92AE9D" stroke="black"/>
<rect x="649.5" y="12.5" width="72" height="72" fill="#78E2A0" stroke="black"/>
<rect x="576.5" y="12.5" width="72" height="72" fill="#78E2A0" stroke="black"/>
<rect x="503.5" y="12.5" width="72" height="72" fill="#2ACB67" stroke="black"/>
<rect x="211.5" y="12.5" width="72" height="72" fill="#2ACB67" stroke="black"/>
<rect x="138.5" y="12.5" width="72" height="72" fill="#2ACB67" stroke="black"/>
<rect x="284.5" y="12.5" width="72" height="72" fill="#2ACB67" stroke="black"/>
<rect x="357.5" y="12.5" width="72" height="72" fill="#2ACB67" stroke="black"/>
<rect x="430.5" y="12.5" width="72" height="72" fill="#2ACB67" stroke="black"/>
<path d="M102.165 56.1989C101.189 56.1989 100.328 56.026 99.5795 55.6804C98.8362 55.33 98.2562 54.8494 97.8395 54.2386C97.4228 53.6231 97.2169 52.9223 97.2216 52.1364C97.2169 51.5208 97.3376 50.9527 97.5838 50.4318C97.83 49.9062 98.1662 49.4683 98.5923 49.1179C99.0232 48.7628 99.5038 48.5379 100.034 48.4432V48.358C99.3381 48.178 98.7841 47.7874 98.3722 47.1861C97.9602 46.58 97.7566 45.8911 97.7614 45.1193C97.7566 44.3807 97.9437 43.7202 98.3224 43.1378C98.7012 42.5554 99.2221 42.0961 99.8849 41.7599C100.553 41.4238 101.313 41.2557 102.165 41.2557C103.008 41.2557 103.76 41.4238 104.423 41.7599C105.086 42.0961 105.607 42.5554 105.986 43.1378C106.369 43.7202 106.563 44.3807 106.568 45.1193C106.563 45.8911 106.353 46.58 105.936 47.1861C105.524 47.7874 104.977 48.178 104.295 48.358V48.4432C104.821 48.5379 105.295 48.7628 105.716 49.1179C106.137 49.4683 106.473 49.9062 106.724 50.4318C106.975 50.9527 107.103 51.5208 107.108 52.1364C107.103 52.9223 106.89 53.6231 106.469 54.2386C106.052 54.8494 105.472 55.33 104.729 55.6804C103.99 56.026 103.135 56.1989 102.165 56.1989ZM102.165 54.6364C102.823 54.6364 103.391 54.5298 103.869 54.3168C104.348 54.1037 104.717 53.803 104.977 53.4148C105.238 53.0265 105.37 52.572 105.375 52.0511C105.37 51.5019 105.228 51.0166 104.949 50.5952C104.67 50.1738 104.288 49.8423 103.805 49.6009C103.327 49.3594 102.78 49.2386 102.165 49.2386C101.545 49.2386 100.991 49.3594 100.503 49.6009C100.02 49.8423 99.6387 50.1738 99.3594 50.5952C99.0848 51.0166 98.9498 51.5019 98.9545 52.0511C98.9498 52.572 99.0753 53.0265 99.331 53.4148C99.5914 53.803 99.9631 54.1037 100.446 54.3168C100.929 54.5298 101.502 54.6364 102.165 54.6364ZM102.165 47.733C102.686 47.733 103.147 47.6288 103.55 47.4205C103.957 47.2121 104.277 46.9209 104.509 46.5469C104.741 46.1728 104.859 45.7348 104.864 45.233C104.859 44.7405 104.743 44.312 104.516 43.9474C104.288 43.5781 103.973 43.294 103.571 43.0952C103.169 42.8916 102.7 42.7898 102.165 42.7898C101.62 42.7898 101.144 42.8916 100.737 43.0952C100.33 43.294 100.015 43.5781 99.7926 43.9474C99.5701 44.312 99.4612 44.7405 99.4659 45.233C99.4612 45.7348 99.5724 46.1728 99.7997 46.5469C100.032 46.9209 100.351 47.2121 100.759 47.4205C101.166 47.6288 101.634 47.733 102.165 47.733Z" fill="black"/>
</svg>
