<svg width="1298" height="121" viewBox="0 0 1298 121" fill="none" xmlns="http://www.w3.org/2000/svg">
<path d="M69.375 107.139C68.6259 107.139 67.9879 106.935 67.4609 106.528C66.9339 106.117 66.5313 105.522 66.2528 104.743C65.9744 103.961 65.8352 103.016 65.8352 101.909C65.8352 100.809 65.9744 99.8691 66.2528 99.0902C66.5346 98.308 66.9389 97.7114 67.4659 97.3004C67.9962 96.8861 68.6326 96.679 69.375 96.679C70.1174 96.679 70.7521 96.8861 71.2791 97.3004C71.8094 97.7114 72.2138 98.308 72.4922 99.0902C72.7739 99.8691 72.9148 100.809 72.9148 101.909C72.9148 103.016 72.7756 103.961 72.4972 104.743C72.2188 105.522 71.8161 106.117 71.2891 106.528C70.7621 106.935 70.1241 107.139 69.375 107.139ZM69.375 106.045C70.1174 106.045 70.6941 105.687 71.1051 104.972C71.5161 104.256 71.7216 103.235 71.7216 101.909C71.7216 101.027 71.6271 100.277 71.4382 99.657C71.2526 99.0372 70.9841 98.5649 70.6328 98.2401C70.2848 97.9152 69.8655 97.7528 69.375 97.7528C68.6392 97.7528 68.0642 98.1158 67.6499 98.8416C67.2356 99.5642 67.0284 100.587 67.0284 101.909C67.0284 102.791 67.1212 103.54 67.3068 104.156C67.4924 104.773 67.7592 105.242 68.1072 105.563C68.4586 105.885 68.8812 106.045 69.375 106.045Z" fill="white"/>
<path d="M142.634 96.8182V107H141.401V98.1108H141.341L138.855 99.7614V98.5085L141.401 96.8182H142.634Z" fill="white"/>
<path d="M212.054 107V106.105L215.415 102.426C215.809 101.995 216.134 101.621 216.389 101.303C216.644 100.981 216.833 100.679 216.956 100.398C217.082 100.113 217.145 99.8144 217.145 99.5028C217.145 99.1449 217.059 98.835 216.886 98.5732C216.717 98.3113 216.485 98.1091 216.19 97.9666C215.895 97.8241 215.564 97.7528 215.196 97.7528C214.805 97.7528 214.464 97.834 214.172 97.9964C213.884 98.1555 213.66 98.3793 213.501 98.6676C213.345 98.956 213.267 99.294 213.267 99.6818H212.094C212.094 99.0852 212.231 98.5616 212.506 98.1108C212.781 97.66 213.156 97.3087 213.63 97.0568C214.107 96.8049 214.643 96.679 215.236 96.679C215.832 96.679 216.361 96.8049 216.822 97.0568C217.282 97.3087 217.644 97.6484 217.906 98.076C218.167 98.5036 218.298 98.9792 218.298 99.5028C218.298 99.8774 218.23 100.244 218.094 100.602C217.962 100.956 217.73 101.352 217.398 101.79C217.07 102.224 216.615 102.754 216.031 103.381L213.744 105.827V105.906H218.477V107H212.054Z" fill="white"/>
<path d="M288.494 107.139C287.838 107.139 287.253 107.027 286.739 106.801C286.229 106.576 285.823 106.263 285.521 105.862C285.223 105.457 285.061 104.988 285.034 104.455H286.287C286.313 104.783 286.426 105.066 286.625 105.305C286.824 105.54 287.084 105.722 287.406 105.852C287.727 105.981 288.083 106.045 288.474 106.045C288.912 106.045 289.3 105.969 289.638 105.817C289.976 105.664 290.241 105.452 290.433 105.18C290.625 104.909 290.722 104.594 290.722 104.236C290.722 103.861 290.629 103.531 290.443 103.246C290.258 102.958 289.986 102.733 289.628 102.57C289.27 102.408 288.832 102.327 288.315 102.327H287.5V101.233H288.315C288.72 101.233 289.074 101.16 289.379 101.014C289.688 100.868 289.928 100.663 290.1 100.398C290.276 100.133 290.364 99.821 290.364 99.4631C290.364 99.1184 290.287 98.8184 290.135 98.5632C289.982 98.308 289.767 98.1091 289.489 97.9666C289.214 97.8241 288.889 97.7528 288.514 97.7528C288.163 97.7528 287.831 97.8175 287.52 97.9467C287.212 98.0727 286.96 98.2566 286.764 98.4986C286.569 98.7372 286.463 99.0256 286.446 99.3636H285.253C285.273 98.83 285.433 98.3627 285.735 97.9616C286.037 97.5573 286.431 97.2424 286.918 97.017C287.409 96.7917 287.947 96.679 288.534 96.679C289.164 96.679 289.704 96.8066 290.155 97.0618C290.606 97.3137 290.952 97.6468 291.194 98.0611C291.436 98.4754 291.557 98.9228 291.557 99.4034C291.557 99.9768 291.406 100.466 291.104 100.87C290.806 101.274 290.4 101.554 289.886 101.71V101.79C290.529 101.896 291.031 102.169 291.393 102.61C291.754 103.048 291.935 103.589 291.935 104.236C291.935 104.789 291.784 105.286 291.482 105.727C291.184 106.165 290.776 106.509 290.259 106.761C289.742 107.013 289.154 107.139 288.494 107.139Z" fill="white"/>
<path d="M357.815 104.912V103.898L362.29 96.8182H363.026V98.3892H362.528L359.148 103.739V103.818H365.173V104.912H357.815ZM362.608 107V104.604V104.131V96.8182H363.781V107H362.608Z" fill="white"/>
<path d="M434.236 107.139C433.652 107.139 433.127 107.023 432.66 106.791C432.192 106.559 431.818 106.241 431.536 105.837C431.254 105.432 431.1 104.972 431.074 104.455H432.267C432.313 104.915 432.522 105.296 432.893 105.598C433.268 105.896 433.715 106.045 434.236 106.045C434.653 106.045 435.025 105.948 435.349 105.752C435.678 105.557 435.934 105.288 436.12 104.947C436.309 104.602 436.403 104.213 436.403 103.778C436.403 103.334 436.306 102.938 436.11 102.59C435.918 102.239 435.653 101.962 435.315 101.76C434.977 101.558 434.59 101.455 434.156 101.452C433.845 101.448 433.525 101.496 433.197 101.596C432.869 101.692 432.598 101.816 432.386 101.969L431.233 101.83L431.849 96.8182H437.139V97.9119H432.884L432.526 100.915H432.585C432.794 100.749 433.056 100.612 433.371 100.502C433.686 100.393 434.014 100.338 434.355 100.338C434.978 100.338 435.533 100.487 436.021 100.786C436.511 101.08 436.896 101.485 437.174 101.999C437.456 102.512 437.597 103.099 437.597 103.759C437.597 104.408 437.451 104.988 437.159 105.499C436.871 106.006 436.473 106.407 435.966 106.702C435.459 106.993 434.882 107.139 434.236 107.139Z" fill="white"/>
<path d="M507.435 107.139C507.017 107.133 506.599 107.053 506.182 106.901C505.764 106.748 505.383 106.491 505.038 106.13C504.694 105.765 504.417 105.273 504.208 104.653C503.999 104.03 503.895 103.248 503.895 102.307C503.895 101.405 503.979 100.607 504.148 99.9105C504.317 99.2112 504.563 98.6229 504.884 98.1456C505.206 97.665 505.594 97.3004 506.048 97.0518C506.505 96.8033 507.02 96.679 507.594 96.679C508.164 96.679 508.671 96.7933 509.115 97.022C509.563 97.2474 509.927 97.5623 510.209 97.9666C510.491 98.371 510.673 98.8366 510.756 99.3636H509.543C509.43 98.9062 509.211 98.5268 508.886 98.2251C508.562 97.9235 508.131 97.7727 507.594 97.7727C506.805 97.7727 506.183 98.1158 505.729 98.8018C505.279 99.4879 505.052 100.451 505.048 101.69H505.128C505.313 101.409 505.534 101.168 505.789 100.969C506.048 100.767 506.333 100.612 506.644 100.502C506.956 100.393 507.286 100.338 507.634 100.338C508.217 100.338 508.75 100.484 509.234 100.776C509.718 101.064 510.106 101.463 510.398 101.974C510.689 102.481 510.835 103.062 510.835 103.719C510.835 104.348 510.694 104.925 510.413 105.449C510.131 105.969 509.735 106.384 509.224 106.692C508.717 106.997 508.121 107.146 507.435 107.139ZM507.435 106.045C507.852 106.045 508.227 105.941 508.558 105.732C508.893 105.523 509.156 105.243 509.349 104.892C509.544 104.541 509.642 104.15 509.642 103.719C509.642 103.298 509.548 102.915 509.359 102.57C509.173 102.222 508.916 101.946 508.588 101.74C508.263 101.535 507.892 101.432 507.474 101.432C507.16 101.432 506.866 101.495 506.594 101.621C506.323 101.743 506.084 101.912 505.879 102.128C505.676 102.343 505.517 102.59 505.401 102.869C505.285 103.144 505.227 103.434 505.227 103.739C505.227 104.143 505.322 104.521 505.511 104.872C505.703 105.223 505.965 105.507 506.296 105.722C506.631 105.938 507.01 106.045 507.435 106.045Z" fill="white"/>
<path d="M577.372 107L581.926 97.9915V97.9119H576.676V96.8182H583.199V97.9716L578.665 107H577.372Z" fill="white"/>
<path d="M653.315 107.139C652.633 107.139 652.029 107.018 651.506 106.776C650.985 106.531 650.579 106.195 650.288 105.767C649.996 105.336 649.852 104.846 649.855 104.295C649.852 103.865 649.936 103.467 650.109 103.102C650.281 102.734 650.516 102.428 650.815 102.183C651.116 101.934 651.453 101.777 651.824 101.71V101.651C651.337 101.525 650.949 101.251 650.661 100.83C650.372 100.406 650.23 99.9238 650.233 99.3835C650.23 98.8665 650.361 98.4041 650.626 97.9964C650.891 97.5888 651.255 97.2673 651.719 97.032C652.187 96.7966 652.719 96.679 653.315 96.679C653.905 96.679 654.432 96.7966 654.896 97.032C655.36 97.2673 655.725 97.5888 655.99 97.9964C656.259 98.4041 656.394 98.8665 656.398 99.3835C656.394 99.9238 656.247 100.406 655.955 100.83C655.667 101.251 655.284 101.525 654.807 101.651V101.71C655.175 101.777 655.506 101.934 655.801 102.183C656.096 102.428 656.331 102.734 656.507 103.102C656.683 103.467 656.772 103.865 656.776 104.295C656.772 104.846 656.623 105.336 656.328 105.767C656.036 106.195 655.63 106.531 655.11 106.776C654.593 107.018 653.995 107.139 653.315 107.139ZM653.315 106.045C653.776 106.045 654.174 105.971 654.509 105.822C654.843 105.673 655.102 105.462 655.284 105.19C655.466 104.919 655.559 104.6 655.562 104.236C655.559 103.851 655.46 103.512 655.264 103.217C655.069 102.922 654.802 102.69 654.464 102.521C654.129 102.352 653.746 102.267 653.315 102.267C652.881 102.267 652.493 102.352 652.152 102.521C651.814 102.69 651.547 102.922 651.352 103.217C651.159 103.512 651.065 103.851 651.068 104.236C651.065 104.6 651.153 104.919 651.332 105.19C651.514 105.462 651.774 105.673 652.112 105.822C652.45 105.971 652.851 106.045 653.315 106.045ZM653.315 101.213C653.68 101.213 654.003 101.14 654.285 100.994C654.57 100.848 654.794 100.645 654.956 100.383C655.118 100.121 655.201 99.8144 655.205 99.4631C655.201 99.1184 655.12 98.8184 654.961 98.5632C654.802 98.3047 654.581 98.1058 654.3 97.9666C654.018 97.8241 653.69 97.7528 653.315 97.7528C652.934 97.7528 652.601 97.8241 652.316 97.9666C652.031 98.1058 651.811 98.3047 651.655 98.5632C651.499 98.8184 651.423 99.1184 651.426 99.4631C651.423 99.8144 651.501 100.121 651.66 100.383C651.822 100.645 652.046 100.848 652.331 100.994C652.616 101.14 652.944 101.213 653.315 101.213Z" fill="white"/>
<path d="M726.295 96.679C726.713 96.6823 727.131 96.7618 727.548 96.9176C727.966 97.0734 728.347 97.3319 728.692 97.6932C729.036 98.0511 729.313 98.54 729.522 99.1598C729.731 99.7796 729.835 100.557 729.835 101.491C729.835 102.396 729.749 103.2 729.577 103.903C729.408 104.602 729.162 105.192 728.841 105.673C728.523 106.153 728.135 106.518 727.678 106.766C727.223 107.015 726.71 107.139 726.136 107.139C725.566 107.139 725.058 107.027 724.61 106.801C724.166 106.572 723.801 106.256 723.516 105.852C723.235 105.444 723.054 104.972 722.974 104.435H724.188C724.297 104.902 724.514 105.288 724.839 105.593C725.167 105.895 725.599 106.045 726.136 106.045C726.922 106.045 727.542 105.702 727.996 105.016C728.453 104.33 728.682 103.361 728.682 102.108H728.602C728.417 102.386 728.196 102.627 727.941 102.829C727.686 103.031 727.402 103.187 727.091 103.296C726.779 103.406 726.448 103.46 726.097 103.46C725.513 103.46 724.978 103.316 724.491 103.028C724.007 102.736 723.619 102.337 723.327 101.83C723.039 101.319 722.895 100.736 722.895 100.08C722.895 99.4564 723.034 98.8864 723.312 98.3693C723.594 97.849 723.989 97.4347 724.496 97.1264C725.006 96.8182 725.606 96.669 726.295 96.679ZM726.295 97.7727C725.878 97.7727 725.502 97.8771 725.167 98.0859C724.835 98.2914 724.572 98.5698 724.376 98.9212C724.184 99.2692 724.088 99.6553 724.088 100.08C724.088 100.504 724.181 100.89 724.366 101.238C724.555 101.583 724.812 101.858 725.137 102.063C725.465 102.265 725.838 102.366 726.256 102.366C726.571 102.366 726.864 102.305 727.136 102.183C727.407 102.057 727.644 101.886 727.847 101.67C728.052 101.452 728.213 101.205 728.329 100.93C728.445 100.651 728.503 100.361 728.503 100.06C728.503 99.6619 728.407 99.2891 728.214 98.9411C728.026 98.593 727.764 98.3113 727.429 98.0959C727.098 97.8804 726.72 97.7727 726.295 97.7727Z" fill="white"/>
<path d="M799.634 96.8182V107H798.401V98.1108H798.341L795.855 99.7614V98.5085L798.401 96.8182H799.634ZM805.883 107.139C805.134 107.139 804.496 106.935 803.969 106.528C803.442 106.117 803.039 105.522 802.761 104.743C802.482 103.961 802.343 103.016 802.343 101.909C802.343 100.809 802.482 99.8691 802.761 99.0902C803.042 98.308 803.447 97.7114 803.974 97.3004C804.504 96.8861 805.14 96.679 805.883 96.679C806.625 96.679 807.26 96.8861 807.787 97.3004C808.317 97.7114 808.722 98.308 809 99.0902C809.282 99.8691 809.423 100.809 809.423 101.909C809.423 103.016 809.283 103.961 809.005 104.743C808.727 105.522 808.324 106.117 807.797 106.528C807.27 106.935 806.632 107.139 805.883 107.139ZM805.883 106.045C806.625 106.045 807.202 105.687 807.613 104.972C808.024 104.256 808.229 103.235 808.229 101.909C808.229 101.027 808.135 100.277 807.946 99.657C807.76 99.0372 807.492 98.5649 807.141 98.2401C806.793 97.9152 806.373 97.7528 805.883 97.7528C805.147 97.7528 804.572 98.1158 804.158 98.8416C803.743 99.5642 803.536 100.587 803.536 101.909C803.536 102.791 803.629 103.54 803.815 104.156C804 104.773 804.267 105.242 804.615 105.563C804.966 105.885 805.389 106.045 805.883 106.045Z" fill="white"/>
<path d="M872.634 96.8182V107H871.401V98.1108H871.341L868.855 99.7614V98.5085L871.401 96.8182H872.634ZM879.141 96.8182V107H877.908V98.1108H877.849L875.363 99.7614V98.5085L877.908 96.8182H879.141Z" fill="white"/>
<path d="M947.634 96.8182V107H946.401V98.1108H946.341L943.855 99.7614V98.5085L946.401 96.8182H947.634ZM950.562 107V106.105L953.923 102.426C954.317 101.995 954.642 101.621 954.897 101.303C955.152 100.981 955.341 100.679 955.464 100.398C955.59 100.113 955.653 99.8144 955.653 99.5028C955.653 99.1449 955.567 98.835 955.394 98.5732C955.225 98.3113 954.993 98.1091 954.698 97.9666C954.403 97.8241 954.072 97.7528 953.704 97.7528C953.313 97.7528 952.971 97.834 952.68 97.9964C952.391 98.1555 952.168 98.3793 952.009 98.6676C951.853 98.956 951.775 99.294 951.775 99.6818H950.602C950.602 99.0852 950.739 98.5616 951.014 98.1108C951.289 97.66 951.664 97.3087 952.138 97.0568C952.615 96.8049 953.15 96.679 953.744 96.679C954.34 96.679 954.869 96.8049 955.33 97.0568C955.79 97.3087 956.152 97.6484 956.413 98.076C956.675 98.5036 956.806 98.9792 956.806 99.5028C956.806 99.8774 956.738 100.244 956.602 100.602C956.47 100.956 956.238 101.352 955.906 101.79C955.578 102.224 955.122 102.754 954.539 103.381L952.252 105.827V105.906H956.985V107H950.562Z" fill="white"/>
<path d="M1019.63 96.8182V107H1018.4V98.1108H1018.34L1015.86 99.7614V98.5085L1018.4 96.8182H1019.63ZM1026 107.139C1025.35 107.139 1024.76 107.027 1024.25 106.801C1023.74 106.576 1023.33 106.263 1023.03 105.862C1022.73 105.457 1022.57 104.988 1022.54 104.455H1023.79C1023.82 104.783 1023.93 105.066 1024.13 105.305C1024.33 105.54 1024.59 105.722 1024.91 105.852C1025.23 105.981 1025.59 106.045 1025.98 106.045C1026.42 106.045 1026.81 105.969 1027.15 105.817C1027.48 105.664 1027.75 105.452 1027.94 105.18C1028.13 104.909 1028.23 104.594 1028.23 104.236C1028.23 103.861 1028.14 103.531 1027.95 103.246C1027.77 102.958 1027.49 102.733 1027.14 102.57C1026.78 102.408 1026.34 102.327 1025.82 102.327H1025.01V101.233H1025.82C1026.23 101.233 1026.58 101.16 1026.89 101.014C1027.2 100.868 1027.44 100.663 1027.61 100.398C1027.78 100.133 1027.87 99.821 1027.87 99.4631C1027.87 99.1184 1027.8 98.8184 1027.64 98.5632C1027.49 98.308 1027.27 98.1091 1027 97.9666C1026.72 97.8241 1026.4 97.7528 1026.02 97.7528C1025.67 97.7528 1025.34 97.8175 1025.03 97.9467C1024.72 98.0727 1024.47 98.2566 1024.27 98.4986C1024.08 98.7372 1023.97 99.0256 1023.95 99.3636H1022.76C1022.78 98.83 1022.94 98.3627 1023.24 97.9616C1023.54 97.5573 1023.94 97.2424 1024.43 97.017C1024.92 96.7917 1025.46 96.679 1026.04 96.679C1026.67 96.679 1027.21 96.8066 1027.66 97.0618C1028.11 97.3137 1028.46 97.6468 1028.7 98.0611C1028.94 98.4754 1029.06 98.9228 1029.06 99.4034C1029.06 99.9768 1028.91 100.466 1028.61 100.87C1028.31 101.274 1027.91 101.554 1027.39 101.71V101.79C1028.04 101.896 1028.54 102.169 1028.9 102.61C1029.26 103.048 1029.44 103.589 1029.44 104.236C1029.44 104.789 1029.29 105.286 1028.99 105.727C1028.69 106.165 1028.28 106.509 1027.77 106.761C1027.25 107.013 1026.66 107.139 1026 107.139Z" fill="white"/>
<path d="M1092.63 96.8182V107H1091.4V98.1108H1091.34L1088.86 99.7614V98.5085L1091.4 96.8182H1092.63ZM1095.32 104.912V103.898L1099.8 96.8182H1100.53V98.3892H1100.04L1096.66 103.739V103.818H1102.68V104.912H1095.32ZM1100.12 107V104.604V104.131V96.8182H1101.29V107H1100.12Z" fill="white"/>
<path d="M1165.63 96.8182V107H1164.4V98.1108H1164.34L1161.86 99.7614V98.5085L1164.4 96.8182H1165.63ZM1171.74 107.139C1171.16 107.139 1170.63 107.023 1170.17 106.791C1169.7 106.559 1169.33 106.241 1169.04 105.837C1168.76 105.432 1168.61 104.972 1168.58 104.455H1169.77C1169.82 104.915 1170.03 105.296 1170.4 105.598C1170.78 105.896 1171.22 106.045 1171.74 106.045C1172.16 106.045 1172.53 105.948 1172.86 105.752C1173.19 105.557 1173.44 105.288 1173.63 104.947C1173.82 104.602 1173.91 104.213 1173.91 103.778C1173.91 103.334 1173.81 102.938 1173.62 102.59C1173.43 102.239 1173.16 101.962 1172.82 101.76C1172.48 101.558 1172.1 101.455 1171.66 101.452C1171.35 101.448 1171.03 101.496 1170.7 101.596C1170.38 101.692 1170.11 101.816 1169.89 101.969L1168.74 101.83L1169.36 96.8182H1174.65V97.9119H1170.39L1170.03 100.915H1170.09C1170.3 100.749 1170.56 100.612 1170.88 100.502C1171.19 100.393 1171.52 100.338 1171.86 100.338C1172.49 100.338 1173.04 100.487 1173.53 100.786C1174.02 101.08 1174.4 101.485 1174.68 101.999C1174.96 102.512 1175.1 103.099 1175.1 103.759C1175.1 104.408 1174.96 104.988 1174.67 105.499C1174.38 106.006 1173.98 106.407 1173.47 106.702C1172.97 106.993 1172.39 107.139 1171.74 107.139Z" fill="white"/>
<rect x="65.5" y="20.5" width="72" height="72" fill="#78E2A0" stroke="#1D1E28"/>
<rect x="138.5" y="20.5" width="72" height="72" fill="#14BD54" stroke="#1D1E28"/>
<rect x="211.5" y="20.5" width="72" height="72" fill="#14BD54" stroke="#1D1E28"/>
<rect x="284.5" y="20.5" width="72" height="72" fill="#14BD54" stroke="#1D1E28"/>
<rect x="357.5" y="20.5" width="72" height="72" fill="#92AE9D" stroke="#1D1E28"/>
<rect x="430.5" y="20.5" width="72" height="72" fill="#92AE9D" stroke="#1D1E28"/>
<rect x="503.5" y="20.5" width="72" height="72" fill="#78E2A0" stroke="#1D1E28"/>
<rect x="576.5" y="20.5" width="72" height="72" fill="#14BD54" stroke="#1D1E28"/>
<rect x="649.5" y="20.5" width="72" height="72" fill="#14BD54" stroke="#1D1E28"/>
<rect x="722.5" y="20.5" width="72" height="72" fill="#14BD54" stroke="#1D1E28"/>
<rect x="795.5" y="20.5" width="72" height="72" fill="#14BD54" stroke="#1D1E28"/>
<rect x="868.5" y="20.5" width="72" height="72" fill="#92AE9D" stroke="#1D1E28"/>
<rect x="941.5" y="20.5" width="72" height="72" fill="#92AE9D" stroke="#1D1E28"/>
<rect x="1014.5" y="20.5" width="72" height="72" fill="#92AE9D" stroke="#1D1E28"/>
<rect x="1087.5" y="20.5" width="72" height="72" fill="#78E2A0" stroke="#1D1E28"/>
<rect x="1160.5" y="20.5" width="72" height="72" fill="#14BD54" stroke="#1D1E28"/>
<path d="M1123.62 48.4545V63H1121.86V50.3011H1121.77L1118.22 52.6591V50.8693L1121.86 48.4545H1123.62Z" fill="#1D1E28"/>
<path d="M534.165 60.017V58.5682L540.557 48.4545H541.608V50.6989H540.898L536.068 58.3409V58.4545H544.676V60.017H534.165ZM541.011 63V59.5767V58.902V48.4545H542.688V63H541.011Z" fill="#1D1E28"/>
<path d="M101.42 63.1989C100.483 63.1989 99.6473 63.0379 98.9134 62.7159C98.1842 62.3939 97.6042 61.9465 97.1733 61.3736C96.7472 60.7959 96.5152 60.1259 96.4773 59.3636H98.267C98.3049 59.8324 98.4659 60.2372 98.75 60.5781C99.0341 60.9143 99.4058 61.1747 99.8651 61.3594C100.324 61.544 100.833 61.6364 101.392 61.6364C102.017 61.6364 102.571 61.5275 103.054 61.3097C103.537 61.0919 103.916 60.7888 104.19 60.4006C104.465 60.0123 104.602 59.5625 104.602 59.0511C104.602 58.5161 104.47 58.045 104.205 57.6378C103.939 57.2259 103.551 56.9039 103.04 56.6719C102.528 56.4399 101.903 56.3239 101.165 56.3239H100V54.7614H101.165C101.742 54.7614 102.249 54.6572 102.685 54.4489C103.125 54.2405 103.468 53.947 103.714 53.5682C103.965 53.1894 104.091 52.7443 104.091 52.233C104.091 51.7405 103.982 51.312 103.764 50.9474C103.546 50.5829 103.239 50.2988 102.841 50.0952C102.448 49.8916 101.984 49.7898 101.449 49.7898C100.947 49.7898 100.473 49.8821 100.028 50.0668C99.5881 50.2467 99.2282 50.5095 98.9489 50.8551C98.6695 51.196 98.518 51.608 98.4943 52.0909H96.7898C96.8182 51.3286 97.0478 50.661 97.4787 50.0881C97.9096 49.5104 98.473 49.0606 99.169 48.7386C99.8698 48.4167 100.639 48.2557 101.477 48.2557C102.377 48.2557 103.149 48.438 103.793 48.8026C104.437 49.1624 104.931 49.6383 105.277 50.2301C105.623 50.822 105.795 51.4612 105.795 52.1477C105.795 52.9669 105.58 53.6652 105.149 54.2429C104.723 54.8205 104.143 55.2206 103.409 55.4432V55.5568C104.328 55.7083 105.045 56.099 105.561 56.7287C106.077 57.3537 106.335 58.1278 106.335 59.0511C106.335 59.8419 106.12 60.5521 105.689 61.1818C105.263 61.8068 104.68 62.2992 103.942 62.6591C103.203 63.0189 102.363 63.1989 101.42 63.1989Z" fill="#1D1E28"/>
</svg>
