<svg width="997" height="121" viewBox="0 0 997 121" fill="none" xmlns="http://www.w3.org/2000/svg">
<path d="M97.4205 62.1989C96.483 62.1989 95.6473 62.0379 94.9134 61.7159C94.1842 61.3939 93.6042 60.9465 93.1733 60.3736C92.7472 59.7959 92.5152 59.1259 92.4773 58.3636H94.267C94.3049 58.8324 94.4659 59.2372 94.75 59.5781C95.0341 59.9143 95.4058 60.1747 95.8651 60.3594C96.3243 60.544 96.8333 60.6364 97.392 60.6364C98.017 60.6364 98.571 60.5275 99.054 60.3097C99.5369 60.0919 99.9157 59.7888 100.19 59.4006C100.465 59.0123 100.602 58.5625 100.602 58.0511C100.602 57.5161 100.47 57.045 100.205 56.6378C99.9394 56.2259 99.5511 55.9039 99.0398 55.6719C98.5284 55.4399 97.9034 55.3239 97.1648 55.3239H96V53.7614H97.1648C97.7424 53.7614 98.2491 53.6572 98.6847 53.4489C99.125 53.2405 99.4683 52.947 99.7145 52.5682C99.9654 52.1894 100.091 51.7443 100.091 51.233C100.091 50.7405 99.982 50.312 99.7642 49.9474C99.5464 49.5829 99.2386 49.2988 98.8409 49.0952C98.4479 48.8916 97.9839 48.7898 97.4489 48.7898C96.947 48.7898 96.4735 48.8821 96.0284 49.0668C95.5881 49.2467 95.2282 49.5095 94.9489 49.8551C94.6695 50.196 94.518 50.608 94.4943 51.0909H92.7898C92.8182 50.3286 93.0478 49.661 93.4787 49.0881C93.9096 48.5104 94.473 48.0606 95.169 47.7386C95.8698 47.4167 96.6392 47.2557 97.4773 47.2557C98.3769 47.2557 99.1487 47.438 99.7926 47.8026C100.437 48.1624 100.931 48.6383 101.277 49.2301C101.623 49.822 101.795 50.4612 101.795 51.1477C101.795 51.9669 101.58 52.6652 101.149 53.2429C100.723 53.8205 100.143 54.2206 99.4091 54.4432V54.5568C100.328 54.7083 101.045 55.099 101.561 55.7287C102.077 56.3537 102.335 57.1278 102.335 58.0511C102.335 58.8419 102.12 59.5521 101.689 60.1818C101.263 60.8068 100.68 61.2992 99.9418 61.6591C99.2031 62.0189 98.3627 62.1989 97.4205 62.1989Z" fill="white"/>
<path d="M65.375 107.139C64.6259 107.139 63.9879 106.935 63.4609 106.528C62.9339 106.117 62.5313 105.522 62.2528 104.743C61.9744 103.961 61.8352 103.016 61.8352 101.909C61.8352 100.809 61.9744 99.8691 62.2528 99.0902C62.5346 98.308 62.9389 97.7114 63.4659 97.3004C63.9962 96.8861 64.6326 96.679 65.375 96.679C66.1174 96.679 66.7521 96.8861 67.2791 97.3004C67.8094 97.7114 68.2138 98.308 68.4922 99.0902C68.7739 99.8691 68.9148 100.809 68.9148 101.909C68.9148 103.016 68.7756 103.961 68.4972 104.743C68.2188 105.522 67.8161 106.117 67.2891 106.528C66.7621 106.935 66.1241 107.139 65.375 107.139ZM65.375 106.045C66.1174 106.045 66.6941 105.687 67.1051 104.972C67.5161 104.256 67.7216 103.235 67.7216 101.909C67.7216 101.027 67.6271 100.277 67.4382 99.657C67.2526 99.0372 66.9841 98.5649 66.6328 98.2401C66.2848 97.9152 65.8655 97.7528 65.375 97.7528C64.6392 97.7528 64.0642 98.1158 63.6499 98.8416C63.2356 99.5642 63.0284 100.587 63.0284 101.909C63.0284 102.791 63.1212 103.54 63.3068 104.156C63.4924 104.773 63.7592 105.242 64.1072 105.563C64.4586 105.885 64.8812 106.045 65.375 106.045Z" fill="white"/>
<path d="M138.634 96.8182V107H137.401V98.1108H137.341L134.855 99.7614V98.5085L137.401 96.8182H138.634Z" fill="white"/>
<path d="M208.054 107V106.105L211.415 102.426C211.809 101.995 212.134 101.621 212.389 101.303C212.644 100.981 212.833 100.679 212.956 100.398C213.082 100.113 213.145 99.8144 213.145 99.5028C213.145 99.1449 213.059 98.835 212.886 98.5732C212.717 98.3113 212.485 98.1091 212.19 97.9666C211.895 97.8241 211.564 97.7528 211.196 97.7528C210.805 97.7528 210.464 97.834 210.172 97.9964C209.884 98.1555 209.66 98.3793 209.501 98.6676C209.345 98.956 209.267 99.294 209.267 99.6818H208.094C208.094 99.0852 208.231 98.5616 208.506 98.1108C208.781 97.66 209.156 97.3087 209.63 97.0568C210.107 96.8049 210.643 96.679 211.236 96.679C211.832 96.679 212.361 96.8049 212.822 97.0568C213.282 97.3087 213.644 97.6484 213.906 98.076C214.167 98.5036 214.298 98.9792 214.298 99.5028C214.298 99.8774 214.23 100.244 214.094 100.602C213.962 100.956 213.73 101.352 213.398 101.79C213.07 102.224 212.615 102.754 212.031 103.381L209.744 105.827V105.906H214.477V107H208.054Z" fill="white"/>
<path d="M284.494 107.139C283.838 107.139 283.253 107.027 282.739 106.801C282.229 106.576 281.823 106.263 281.521 105.862C281.223 105.457 281.061 104.988 281.034 104.455H282.287C282.313 104.783 282.426 105.066 282.625 105.305C282.824 105.54 283.084 105.722 283.406 105.852C283.727 105.981 284.083 106.045 284.474 106.045C284.912 106.045 285.3 105.969 285.638 105.817C285.976 105.664 286.241 105.452 286.433 105.18C286.625 104.909 286.722 104.594 286.722 104.236C286.722 103.861 286.629 103.531 286.443 103.246C286.258 102.958 285.986 102.733 285.628 102.57C285.27 102.408 284.832 102.327 284.315 102.327H283.5V101.233H284.315C284.72 101.233 285.074 101.16 285.379 101.014C285.688 100.868 285.928 100.663 286.1 100.398C286.276 100.133 286.364 99.821 286.364 99.4631C286.364 99.1184 286.287 98.8184 286.135 98.5632C285.982 98.308 285.767 98.1091 285.489 97.9666C285.214 97.8241 284.889 97.7528 284.514 97.7528C284.163 97.7528 283.831 97.8175 283.52 97.9467C283.212 98.0727 282.96 98.2566 282.764 98.4986C282.569 98.7372 282.463 99.0256 282.446 99.3636H281.253C281.273 98.83 281.433 98.3627 281.735 97.9616C282.037 97.5573 282.431 97.2424 282.918 97.017C283.409 96.7917 283.947 96.679 284.534 96.679C285.164 96.679 285.704 96.8066 286.155 97.0618C286.606 97.3137 286.952 97.6468 287.194 98.0611C287.436 98.4754 287.557 98.9228 287.557 99.4034C287.557 99.9768 287.406 100.466 287.104 100.87C286.806 101.274 286.4 101.554 285.886 101.71V101.79C286.529 101.896 287.031 102.169 287.393 102.61C287.754 103.048 287.935 103.589 287.935 104.236C287.935 104.789 287.784 105.286 287.482 105.727C287.184 106.165 286.776 106.509 286.259 106.761C285.742 107.013 285.154 107.139 284.494 107.139Z" fill="white"/>
<path d="M353.815 104.912V103.898L358.29 96.8182H359.026V98.3892H358.528L355.148 103.739V103.818H361.173V104.912H353.815ZM358.608 107V104.604V104.131V96.8182H359.781V107H358.608Z" fill="white"/>
<path d="M430.236 107.139C429.652 107.139 429.127 107.023 428.66 106.791C428.192 106.559 427.818 106.241 427.536 105.837C427.254 105.432 427.1 104.972 427.074 104.455H428.267C428.313 104.915 428.522 105.296 428.893 105.598C429.268 105.896 429.715 106.045 430.236 106.045C430.653 106.045 431.025 105.948 431.349 105.752C431.678 105.557 431.934 105.288 432.12 104.947C432.309 104.602 432.403 104.213 432.403 103.778C432.403 103.334 432.306 102.938 432.11 102.59C431.918 102.239 431.653 101.962 431.315 101.76C430.977 101.558 430.59 101.455 430.156 101.452C429.845 101.448 429.525 101.496 429.197 101.596C428.869 101.692 428.598 101.816 428.386 101.969L427.233 101.83L427.849 96.8182H433.139V97.9119H428.884L428.526 100.915H428.585C428.794 100.749 429.056 100.612 429.371 100.502C429.686 100.393 430.014 100.338 430.355 100.338C430.978 100.338 431.533 100.487 432.021 100.786C432.511 101.08 432.896 101.485 433.174 101.999C433.456 102.512 433.597 103.099 433.597 103.759C433.597 104.408 433.451 104.988 433.159 105.499C432.871 106.006 432.473 106.407 431.966 106.702C431.459 106.993 430.882 107.139 430.236 107.139Z" fill="white"/>
<path d="M503.435 107.139C503.017 107.133 502.599 107.053 502.182 106.901C501.764 106.748 501.383 106.491 501.038 106.13C500.694 105.765 500.417 105.273 500.208 104.653C499.999 104.03 499.895 103.248 499.895 102.307C499.895 101.405 499.979 100.607 500.148 99.9105C500.317 99.2112 500.563 98.6229 500.884 98.1456C501.206 97.665 501.594 97.3004 502.048 97.0518C502.505 96.8033 503.02 96.679 503.594 96.679C504.164 96.679 504.671 96.7933 505.115 97.022C505.563 97.2474 505.927 97.5623 506.209 97.9666C506.491 98.371 506.673 98.8366 506.756 99.3636H505.543C505.43 98.9062 505.211 98.5268 504.886 98.2251C504.562 97.9235 504.131 97.7727 503.594 97.7727C502.805 97.7727 502.183 98.1158 501.729 98.8018C501.279 99.4879 501.052 100.451 501.048 101.69H501.128C501.313 101.409 501.534 101.168 501.789 100.969C502.048 100.767 502.333 100.612 502.644 100.502C502.956 100.393 503.286 100.338 503.634 100.338C504.217 100.338 504.75 100.484 505.234 100.776C505.718 101.064 506.106 101.463 506.398 101.974C506.689 102.481 506.835 103.062 506.835 103.719C506.835 104.348 506.694 104.925 506.413 105.449C506.131 105.969 505.735 106.384 505.224 106.692C504.717 106.997 504.121 107.146 503.435 107.139ZM503.435 106.045C503.852 106.045 504.227 105.941 504.558 105.732C504.893 105.523 505.156 105.243 505.349 104.892C505.544 104.541 505.642 104.15 505.642 103.719C505.642 103.298 505.548 102.915 505.359 102.57C505.173 102.222 504.916 101.946 504.588 101.74C504.263 101.535 503.892 101.432 503.474 101.432C503.16 101.432 502.866 101.495 502.594 101.621C502.323 101.743 502.084 101.912 501.879 102.128C501.676 102.343 501.517 102.59 501.401 102.869C501.285 103.144 501.227 103.434 501.227 103.739C501.227 104.143 501.322 104.521 501.511 104.872C501.703 105.223 501.965 105.507 502.296 105.722C502.631 105.938 503.01 106.045 503.435 106.045Z" fill="white"/>
<path d="M573.372 107L577.926 97.9915V97.9119H572.676V96.8182H579.199V97.9716L574.665 107H573.372Z" fill="white"/>
<path d="M649.315 107.139C648.633 107.139 648.029 107.018 647.506 106.776C646.985 106.531 646.579 106.195 646.288 105.767C645.996 105.336 645.852 104.846 645.855 104.295C645.852 103.865 645.936 103.467 646.109 103.102C646.281 102.734 646.516 102.428 646.815 102.183C647.116 101.934 647.453 101.777 647.824 101.71V101.651C647.337 101.525 646.949 101.251 646.661 100.83C646.372 100.406 646.23 99.9238 646.233 99.3835C646.23 98.8665 646.361 98.4041 646.626 97.9964C646.891 97.5888 647.255 97.2673 647.719 97.032C648.187 96.7966 648.719 96.679 649.315 96.679C649.905 96.679 650.432 96.7966 650.896 97.032C651.36 97.2673 651.725 97.5888 651.99 97.9964C652.259 98.4041 652.394 98.8665 652.398 99.3835C652.394 99.9238 652.247 100.406 651.955 100.83C651.667 101.251 651.284 101.525 650.807 101.651V101.71C651.175 101.777 651.506 101.934 651.801 102.183C652.096 102.428 652.331 102.734 652.507 103.102C652.683 103.467 652.772 103.865 652.776 104.295C652.772 104.846 652.623 105.336 652.328 105.767C652.036 106.195 651.63 106.531 651.11 106.776C650.593 107.018 649.995 107.139 649.315 107.139ZM649.315 106.045C649.776 106.045 650.174 105.971 650.509 105.822C650.843 105.673 651.102 105.462 651.284 105.19C651.466 104.919 651.559 104.6 651.562 104.236C651.559 103.851 651.46 103.512 651.264 103.217C651.069 102.922 650.802 102.69 650.464 102.521C650.129 102.352 649.746 102.267 649.315 102.267C648.881 102.267 648.493 102.352 648.152 102.521C647.814 102.69 647.547 102.922 647.352 103.217C647.159 103.512 647.065 103.851 647.068 104.236C647.065 104.6 647.153 104.919 647.332 105.19C647.514 105.462 647.774 105.673 648.112 105.822C648.45 105.971 648.851 106.045 649.315 106.045ZM649.315 101.213C649.68 101.213 650.003 101.14 650.285 100.994C650.57 100.848 650.794 100.645 650.956 100.383C651.118 100.121 651.201 99.8144 651.205 99.4631C651.201 99.1184 651.12 98.8184 650.961 98.5632C650.802 98.3047 650.581 98.1058 650.3 97.9666C650.018 97.8241 649.69 97.7528 649.315 97.7528C648.934 97.7528 648.601 97.8241 648.316 97.9666C648.031 98.1058 647.811 98.3047 647.655 98.5632C647.499 98.8184 647.423 99.1184 647.426 99.4631C647.423 99.8144 647.501 100.121 647.66 100.383C647.822 100.645 648.046 100.848 648.331 100.994C648.616 101.14 648.944 101.213 649.315 101.213Z" fill="white"/>
<path d="M722.295 96.679C722.713 96.6823 723.131 96.7618 723.548 96.9176C723.966 97.0734 724.347 97.3319 724.692 97.6932C725.036 98.0511 725.313 98.54 725.522 99.1598C725.731 99.7796 725.835 100.557 725.835 101.491C725.835 102.396 725.749 103.2 725.577 103.903C725.408 104.602 725.162 105.192 724.841 105.673C724.523 106.153 724.135 106.518 723.678 106.766C723.223 107.015 722.71 107.139 722.136 107.139C721.566 107.139 721.058 107.027 720.61 106.801C720.166 106.572 719.801 106.256 719.516 105.852C719.235 105.444 719.054 104.972 718.974 104.435H720.188C720.297 104.902 720.514 105.288 720.839 105.593C721.167 105.895 721.599 106.045 722.136 106.045C722.922 106.045 723.542 105.702 723.996 105.016C724.453 104.33 724.682 103.361 724.682 102.108H724.602C724.417 102.386 724.196 102.627 723.941 102.829C723.686 103.031 723.402 103.187 723.091 103.296C722.779 103.406 722.448 103.46 722.097 103.46C721.513 103.46 720.978 103.316 720.491 103.028C720.007 102.736 719.619 102.337 719.327 101.83C719.039 101.319 718.895 100.736 718.895 100.08C718.895 99.4564 719.034 98.8864 719.312 98.3693C719.594 97.849 719.989 97.4347 720.496 97.1264C721.006 96.8182 721.606 96.669 722.295 96.679ZM722.295 97.7727C721.878 97.7727 721.502 97.8771 721.167 98.0859C720.835 98.2914 720.572 98.5698 720.376 98.9212C720.184 99.2692 720.088 99.6553 720.088 100.08C720.088 100.504 720.181 100.89 720.366 101.238C720.555 101.583 720.812 101.858 721.137 102.063C721.465 102.265 721.838 102.366 722.256 102.366C722.571 102.366 722.864 102.305 723.136 102.183C723.407 102.057 723.644 101.886 723.847 101.67C724.052 101.452 724.213 101.205 724.329 100.93C724.445 100.651 724.503 100.361 724.503 100.06C724.503 99.6619 724.407 99.2891 724.214 98.9411C724.026 98.593 723.764 98.3113 723.429 98.0959C723.098 97.8804 722.72 97.7727 722.295 97.7727Z" fill="white"/>
<path d="M795.634 96.8182V107H794.401V98.1108H794.341L791.855 99.7614V98.5085L794.401 96.8182H795.634ZM801.883 107.139C801.134 107.139 800.496 106.935 799.969 106.528C799.442 106.117 799.039 105.522 798.761 104.743C798.482 103.961 798.343 103.016 798.343 101.909C798.343 100.809 798.482 99.8691 798.761 99.0902C799.042 98.308 799.447 97.7114 799.974 97.3004C800.504 96.8861 801.14 96.679 801.883 96.679C802.625 96.679 803.26 96.8861 803.787 97.3004C804.317 97.7114 804.722 98.308 805 99.0902C805.282 99.8691 805.423 100.809 805.423 101.909C805.423 103.016 805.283 103.961 805.005 104.743C804.727 105.522 804.324 106.117 803.797 106.528C803.27 106.935 802.632 107.139 801.883 107.139ZM801.883 106.045C802.625 106.045 803.202 105.687 803.613 104.972C804.024 104.256 804.229 103.235 804.229 101.909C804.229 101.027 804.135 100.277 803.946 99.657C803.76 99.0372 803.492 98.5649 803.141 98.2401C802.793 97.9152 802.373 97.7528 801.883 97.7528C801.147 97.7528 800.572 98.1158 800.158 98.8416C799.743 99.5642 799.536 100.587 799.536 101.909C799.536 102.791 799.629 103.54 799.815 104.156C800 104.773 800.267 105.242 800.615 105.563C800.966 105.885 801.389 106.045 801.883 106.045Z" fill="white"/>
<path d="M868.634 96.8182V107H867.401V98.1108H867.341L864.855 99.7614V98.5085L867.401 96.8182H868.634ZM875.141 96.8182V107H873.908V98.1108H873.849L871.363 99.7614V98.5085L873.908 96.8182H875.141Z" fill="white"/>
<path d="M530.165 58.017V56.5682L536.557 46.4545H537.608V48.6989H536.898L532.068 56.3409V56.4545H540.676V58.017H530.165ZM537.011 61V57.5767V56.902V46.4545H538.688V61H537.011Z" fill="white"/>
<rect x="61.5" y="18.5" width="72" height="72" fill="#78E2A0" stroke="#1D1E28"/>
<rect x="134.5" y="18.5" width="72" height="72" fill="#14BD54" stroke="#1D1E28"/>
<rect x="207.5" y="18.5" width="72" height="72" fill="#14BD54" stroke="#1D1E28"/>
<rect x="280.5" y="18.5" width="72" height="72" fill="#14BD54" stroke="#1D1E28"/>
<rect x="353.5" y="18.5" width="72" height="72" fill="#14BD54" stroke="#1D1E28"/>
<rect x="426.5" y="18.5" width="72" height="72" fill="#78E2A0" stroke="#1D1E28"/>
<rect x="499.5" y="18.5" width="72" height="72" fill="#78E2A0" stroke="#1D1E28"/>
<rect x="572.5" y="18.5" width="72" height="72" fill="#78E2A0" stroke="#1D1E28"/>
<rect x="645.5" y="18.5" width="72" height="72" fill="#78E2A0" stroke="#1D1E28"/>
<rect x="718.5" y="18.5" width="72" height="72" fill="#92AE9D" stroke="#1D1E28"/>
<rect x="791.5" y="18.5" width="72" height="72" fill="#92AE9D" stroke="#1D1E28"/>
<rect x="864.5" y="18.5" width="72" height="72" fill="#92AE9D" stroke="#1D1E28"/>
<path d="M97.1648 61.1989C96.1894 61.1989 95.3277 61.026 94.5795 60.6804C93.8362 60.33 93.2562 59.8494 92.8395 59.2386C92.4228 58.6231 92.2169 57.9223 92.2216 57.1364C92.2169 56.5208 92.3376 55.9527 92.5838 55.4318C92.83 54.9062 93.1662 54.4683 93.5923 54.1179C94.0232 53.7628 94.5038 53.5379 95.0341 53.4432V53.358C94.3381 53.178 93.7841 52.7874 93.3722 52.1861C92.9602 51.58 92.7566 50.8911 92.7614 50.1193C92.7566 49.3807 92.9437 48.7202 93.3224 48.1378C93.7012 47.5554 94.2221 47.0961 94.8849 46.7599C95.5526 46.4238 96.3125 46.2557 97.1648 46.2557C98.0076 46.2557 98.7604 46.4238 99.4233 46.7599C100.086 47.0961 100.607 47.5554 100.986 48.1378C101.369 48.7202 101.563 49.3807 101.568 50.1193C101.563 50.8911 101.353 51.58 100.936 52.1861C100.524 52.7874 99.9773 53.178 99.2955 53.358V53.4432C99.821 53.5379 100.295 53.7628 100.716 54.1179C101.137 54.4683 101.473 54.9062 101.724 55.4318C101.975 55.9527 102.103 56.5208 102.108 57.1364C102.103 57.9223 101.89 58.6231 101.469 59.2386C101.052 59.8494 100.472 60.33 99.7287 60.6804C98.9901 61.026 98.1354 61.1989 97.1648 61.1989ZM97.1648 59.6364C97.8229 59.6364 98.3911 59.5298 98.8693 59.3168C99.3475 59.1037 99.7169 58.803 99.9773 58.4148C100.238 58.0265 100.37 57.572 100.375 57.0511C100.37 56.5019 100.228 56.0166 99.9489 55.5952C99.6695 55.1738 99.2884 54.8423 98.8054 54.6009C98.3272 54.3594 97.7803 54.2386 97.1648 54.2386C96.5445 54.2386 95.9905 54.3594 95.5028 54.6009C95.0199 54.8423 94.6387 55.1738 94.3594 55.5952C94.0848 56.0166 93.9498 56.5019 93.9545 57.0511C93.9498 57.572 94.0753 58.0265 94.331 58.4148C94.5914 58.803 94.9631 59.1037 95.446 59.3168C95.929 59.5298 96.5019 59.6364 97.1648 59.6364ZM97.1648 52.733C97.6856 52.733 98.1473 52.6288 98.5497 52.4205C98.9569 52.2121 99.2765 51.9209 99.5085 51.5469C99.7405 51.1728 99.8589 50.7348 99.8636 50.233C99.8589 49.7405 99.7429 49.312 99.5156 48.9474C99.2884 48.5781 98.9735 48.294 98.571 48.0952C98.1686 47.8916 97.6998 47.7898 97.1648 47.7898C96.6203 47.7898 96.1444 47.8916 95.7372 48.0952C95.33 48.294 95.0152 48.5781 94.7926 48.9474C94.5701 49.312 94.4612 49.7405 94.4659 50.233C94.4612 50.7348 94.5724 51.1728 94.7997 51.5469C95.0317 51.9209 95.3513 52.2121 95.7585 52.4205C96.1657 52.6288 96.6345 52.733 97.1648 52.733Z" fill="#1D1E28"/>
</svg>
